<svg id="Layer_3" height="512" viewBox="0 0 64 64" width="512" xmlns="http://www.w3.org/2000/svg" data-name="Layer 3"><path d="m43 58v-26.029a14.908 14.908 0 0 0 -1.293-6.092l-2.707-6.091v-4.788a3 3 0 0 0 3-3v-6a5.006 5.006 0 0 0 -5-5h-30a5.006 5.006 0 0 0 -5 5v6a3 3 0 0 0 3 3v4.788l-2.708 6.091a14.923 14.923 0 0 0 -1.292 6.092v26.029a5.006 5.006 0 0 0 5 5h32a5.006 5.006 0 0 0 5-5zm-2-25v2h-38v-2zm0 4v14h-38v-14zm0 16v2h-38v-2zm-37-41v-6a3 3 0 0 1 3-3h30a3 3 0 0 1 3 3v6a1 1 0 0 1 -1 1h-34a1 1 0 0 1 -1-1zm33 3v4h-30v-4zm-30.35 6h30.7l2.529 5.691a12.877 12.877 0 0 1 1.071 4.309h-37.9a12.9 12.9 0 0 1 1.07-4.309zm-3.65 37v-1h38v1a3 3 0 0 1 -3 3h-32a3 3 0 0 1 -3-3z" fill="#0061a0"/><path d="m6 49h2a3 3 0 0 0 2.234-5 3 3 0 0 0 -2.234-5h-2a1 1 0 0 0 -1 1v8a1 1 0 0 0 1 1zm1-8h1a1 1 0 0 1 0 2h-1zm0 4h1a1 1 0 0 1 0 2h-1z" fill="#0061a0"/><path d="m15 49a3 3 0 0 0 3-3v-4a3 3 0 0 0 -6 0v4a3 3 0 0 0 3 3zm-1-7a1 1 0 0 1 2 0v4a1 1 0 0 1 -2 0z" fill="#0061a0"/><path d="m29 49a3 3 0 0 0 3-3v-4a3 3 0 0 0 -6 0v4a3 3 0 0 0 3 3zm-1-7a1 1 0 0 1 2 0v4a1 1 0 0 1 -2 0z" fill="#0061a0"/><path d="m21 49h2v-8h2v-2h-6v2h2z" fill="#0061a0"/><path d="m62 44h-2v-34a1 1 0 0 0 -1-1h-4v-7h-2v7h-4a1 1 0 0 0 -1 1v34h-2a1 1 0 0 0 -1 1v5a1 1 0 0 0 1 1h5v6h-3a1 1 0 0 0 -1 1v4a1 1 0 0 0 1 1h12a1 1 0 0 0 1-1v-4a1 1 0 0 0 -1-1h-3v-6h5a1 1 0 0 0 1-1v-5a1 1 0 0 0 -1-1zm-12-5h5v-2h-5v-2h3v-2h-3v-2h5v-2h-5v-2h3v-2h-3v-2h5v-2h-5v-2h3v-2h-3v-6h8v33h-8zm9 22h-10v-2h10zm-4-4h-2v-6h2zm6-8h-14v-3h14z" fill="#0061a0"/><path d="m32 49h2l2-3.333 2 3.333h2l-3-5 3-5h-2l-2 3.333-2-3.333h-2l3 5z" fill="#0061a0"/></svg>