<svg id="Capa_1" enable-background="new 0 0 512 512" height="512" viewBox="0 0 512 512" width="512" xmlns="http://www.w3.org/2000/svg"><g><path d="m412.328 405.673c-4.948-1.138-9.621-2.213-13.991-3.291-1.142-.283-1.65-.821-1.768-1.009v-42.102c5.578-4.306 11.016-9.065 16.179-14.217 17.228-17.191 29.882-37.073 37.361-58.246 27.693-18.028 41.171-47.436 41.171-89.808 0-43.194-10.715-82.469-30.988-113.576-2.262-3.471-6.909-4.449-10.378-2.189-3.471 2.262-4.45 6.908-2.189 10.379 18.68 28.665 28.554 65.107 28.554 105.386 0 28.069-6.528 49.427-19.847 64.684 1.032-6.723 1.565-13.516 1.565-20.34 0-59.717-11.966-101.533-36.582-127.835-20.039-21.411-47.934-31.819-85.288-31.819-.055 0-.115 0-.171 0-81.293.069-122.512 53.784-122.512 159.654 0 6.824.533 13.617 1.565 20.34-13.315-15.261-19.842-36.619-19.842-64.684 0-113.692 70.592-164.582 140.551-164.582 36.175 0 66.758 11.417 90.895 33.935 3.031 2.826 7.776 2.661 10.601-.369 2.825-3.029 2.66-7.774-.368-10.6-26.626-24.838-61.595-37.966-101.128-37.966-47.991 0-88.217 18.853-116.329 54.522-25.292 32.092-39.222 76.505-39.222 125.06 0 42.371 13.477 71.782 41.169 89.816 3.852 10.902 9.078 21.461 15.593 31.487l-34.727 20.05c-6.231-5.749-15.111-8.176-23.614-5.972l-26.829 6.954-1.171-2.029c-4.4-7.62-14.179-10.24-21.8-5.84l-21.352 12.327c-8.943 5.163-16.527 12.544-21.931 21.343-5.193 8.455-12.771 14.964-21.911 18.82l-9.363 3.95c-3.816 1.61-5.606 6.009-3.995 9.826 1.609 3.816 6.012 5.603 9.825 3.995l9.363-3.95c12.041-5.08 22.022-13.652 28.863-24.79 4.104-6.681 9.86-12.283 16.65-16.203l21.352-12.327c.458-.265 1.045-.106 1.31.351l34.212 59.257c.265.458.107 1.046-.351 1.311l-21.351 12.327c-6.789 3.92-14.521 6.105-22.359 6.317-13.065.355-25.479 4.712-35.9 12.601l-43.888 33.221c-2.909 2.203-7.092 1.361-8.92-1.805l-23.229-40.233c-1.824-3.159-.471-7.207 2.898-8.629l9.114-3.846c3.816-1.61 5.605-6.009 3.994-9.826-1.611-3.818-6.011-5.604-9.826-3.995l-9.114 3.846c-5.565 2.349-9.86 6.98-11.783 12.707s-1.294 12.011 1.727 17.242l23.229 40.233c6.313 10.934 20.832 13.935 30.964 6.265l43.887-33.22c7.912-5.989 17.336-9.297 27.255-9.567 10.323-.28 20.507-3.158 29.45-8.321l21.351-12.327c7.619-4.399 10.24-14.178 5.842-21.8l-1.171-2.028 19.437-19.758c6.16-6.262 8.499-15.165 6.635-23.435l36.032-20.803c8.441 10.64 18.294 20.359 29.144 28.735v42.097c-.118.188-.629.726-1.766 1.007-4.383 1.081-9.058 2.156-14.006 3.295-42.059 9.678-99.659 22.931-99.659 69.727v4.93c0 7.858 7.083 14.25 15.79 14.25h320.973c8.707 0 15.79-6.393 15.79-14.25v-4.93c0-46.799-57.608-60.052-99.672-69.73zm-219.955-41.414-16.526 16.798-16.306-28.243 22.81-5.912c10.163-2.631 17.396 9.862 10.022 17.357zm37.038-149.055c31.806-9.143 68.427-13.971 106.31-13.971 37.924 0 74.563 4.837 106.363 13.995.397 5.442.666 11.068.802 16.881l-20.577 13.717c-4.58 3.047-9.901 4.658-15.389 4.658h-31.162c-6.221 0-11.92-3.659-14.514-9.31l-2.797-6.117c-8.879-19.355-36.532-19.439-45.458.009l-2.787 6.097c-2.599 5.662-8.298 9.32-14.519 9.32h-31.161c-5.488 0-10.81-1.61-15.384-4.653l-20.576-13.718c.143-5.821.429-11.454.849-16.908zm32.89-91.343c17.503-18.257 41.6-27.144 73.669-27.172h.155c32.974 0 57.292 8.855 74.338 27.069 15.604 16.673 25.645 41.968 30.014 75.46-31.759-8.504-67.706-12.986-104.756-12.986-36.978 0-72.874 4.467-104.613 12.942 4.569-33.185 15.005-58.428 31.193-75.313zm-3.393 199.073 4.69-2.708c3.587-2.071 4.816-6.658 2.745-10.245-2.071-3.588-6.66-4.816-10.245-2.745l-6.121 3.534c-10.146-15.411-19.354-35.803-21.192-60.481l12.039 8.026c7.05 4.689 15.244 7.169 23.698 7.169h31.161c12.065 0 22.835-7.223 28.157-18.073 2.291-4.672 2.734-7.941 6.47-10.342 5.207-3.326 12.008-1.199 14.5 4.234l2.797 6.119c5.037 10.973 16.087 18.063 28.152 18.063h31.162c8.453 0 16.648-2.479 23.703-7.173l12.033-8.022c-3.042 40.831-26.27 69.943-40.505 84.147-24.373 24.321-51.522 35.398-66.431 35.398s-42.058-11.077-66.431-35.398c-3.129-3.123-6.694-6.976-10.382-11.503zm238.092 156.526c-.191.066-.456.123-.79.123h-320.973c-.334 0-.599-.057-.79-.123v-4.058c0-34.855 48.806-46.085 88.022-55.109 5.008-1.152 9.737-2.24 14.242-3.352 7.752-1.921 13.166-8.282 13.166-15.47v-31.914c16.07 9.676 32.329 15.277 45.843 15.277 13.515 0 29.776-5.602 45.848-15.28v31.917c0 7.185 5.408 13.546 13.164 15.472 4.496 1.109 9.226 2.197 14.232 3.348 39.222 9.024 88.035 20.253 88.035 55.11v4.059z" fill="#0061a0"/><path d="m365.243 312.439c3.742-1.776 5.335-6.25 3.559-9.992-1.778-3.742-6.252-5.335-9.992-3.558-15.535 7.377-30.641 7.377-46.176 0-3.743-1.778-8.214-.184-9.992 3.558-1.776 3.742-.184 8.215 3.559 9.992 9.794 4.651 19.658 6.976 29.522 6.976s19.726-2.325 29.52-6.976z" fill="#0061a0"/><path d="m45.331 280.981c15.899 5.261 22.017 11.379 27.279 27.278 1.779 5.377 6.577 8.852 12.223 8.852 5.647 0 10.444-3.475 12.224-8.852 5.261-15.899 11.379-22.017 27.279-27.278 5.377-1.779 8.852-6.577 8.852-12.223s-3.475-10.444-8.852-12.223c-15.9-5.261-22.018-11.38-27.279-27.279-1.779-5.377-6.577-8.851-12.224-8.851-5.646 0-10.443 3.474-12.223 8.851-5.262 15.899-11.38 22.017-27.279 27.278-5.377 1.779-8.852 6.577-8.852 12.223s3.475 10.445 8.852 12.224zm39.502-41.461c5.97 14.919 14.319 23.267 29.238 29.238-14.919 5.97-23.268 14.319-29.238 29.238-5.97-14.919-14.319-23.268-29.237-29.238 14.918-5.97 23.267-14.319 29.237-29.238z" fill="#0061a0"/><path d="m85.085 155.162c15.641 4.633 20.301 9.294 24.935 24.935 1.373 4.636 5.539 7.752 10.366 7.752 4.826 0 8.992-3.115 10.365-7.752 4.633-15.64 9.294-20.3 24.935-24.935 4.636-1.374 7.752-5.54 7.751-10.366 0-4.827-3.115-8.992-7.751-10.365-15.642-4.634-20.302-9.295-24.935-24.936-1.374-4.636-5.539-7.751-10.365-7.751-4.827 0-8.992 3.115-10.366 7.751-4.634 15.641-9.294 20.302-24.935 24.935-4.636 1.373-7.752 5.539-7.752 10.365 0 4.827 3.114 8.993 7.752 10.367zm35.3-30.465c4.453 9.629 10.471 15.646 20.1 20.099-9.629 4.453-15.647 10.47-20.1 20.099-4.453-9.629-10.47-15.646-20.099-20.099 9.629-4.453 15.646-10.47 20.099-20.099z" fill="#0061a0"/></g></svg>