<svg id="Capa_1" enable-background="new 0 0 512 512" height="512" viewBox="0 0 512 512" width="512" xmlns="http://www.w3.org/2000/svg"><g><g><path d="m80.619 155.913 17.264-17.264v19.469c0 22.655-7.487 45.117-21.082 63.248-3.765 5.019-.076 12.046 6.018 12.046 2.289 0 4.551-1.04 6.029-3.013 15.537-20.72 24.094-46.389 24.094-72.281v-19.469l17.264 17.264c1.471 1.47 3.398 2.205 5.325 2.205 1.926 0 3.854-.735 5.325-2.205 2.94-2.941 2.94-7.708 0-10.649-39.118-39.108-28.21-28.275-30.201-30.193-2.965-2.879-7.677-2.814-10.566.075l-30.119 30.117c-2.94 2.941-2.94 7.708 0 10.649 2.941 2.94 7.707 2.94 10.649.001z" fill="#0061a0"/><path d="m171.975 155.913 17.264-17.264v19.469c0 22.655-7.487 45.117-21.082 63.248-3.765 5.019-.076 12.046 6.018 12.046 2.289 0 4.551-1.04 6.029-3.013 15.537-20.72 24.094-46.389 24.094-72.281v-19.469l17.264 17.264c1.471 1.47 3.398 2.205 5.325 2.205s3.854-.735 5.325-2.205c2.94-2.941 2.94-7.708 0-10.649-39.118-39.108-28.21-28.275-30.201-30.193-2.98-2.893-7.691-2.799-10.566.075l-30.118 30.118c-2.94 2.941-2.94 7.708 0 10.649 2.941 2.939 7.707 2.939 10.648 0z" fill="#0061a0"/><path d="m446.745 271.059h-143.059c-18.094 0-35.77 4.76-51.112 13.763-10.912 6.395-25.743 8.906-38.623 8.817l37.461-37.461c11.511 6.783 26.662 5.283 36.596-4.65l128.712-128.713c8.81 4.184 19.031 2.258 25.7-4.397 8.775-8.805 8.775-23.129-.009-31.943l-10.648-10.648 26.617-26.617 10.648 10.648c2.942 2.94 7.708 2.939 10.649 0 2.94-2.941 2.94-7.708 0-10.649l-31.945-31.945c-2.941-2.939-7.708-2.939-10.649 0-2.94 2.941-2.94 7.708 0 10.649l10.648 10.648-26.617 26.617-10.653-10.652c-8.806-8.792-23.136-8.792-31.956.014-6.91 6.934-8.353 17.283-4.375 25.676l-128.715 128.716c-9.904 9.905-11.454 25.05-4.65 36.595l-46.029 46.029c-6.879-1.506-13.099-3.786-18.129-6.734-30.069-17.644-57.36-13.039-64.92-13.765-4.159 0-7.529 3.371-7.529 7.529 0 4.159 3.371 7.529 7.529 7.529 8.014.732 31.362-3.525 57.302 11.696 24.776 14.519 66.352 14.561 91.204-.002 13.036-7.65 28.076-11.694 43.494-11.694h143.059c26.975 0 49.039 21.39 50.143 48.099-12.962 1.42-20.665 6.371-27.566 10.832-7.332 4.74-13.665 8.833-26.974 8.833-13.31 0-19.642-4.093-26.975-8.833-8.154-5.271-17.396-11.245-35.148-11.245-17.754 0-26.996 5.975-35.15 11.247-7.33 4.738-13.661 8.831-26.963 8.831-13.31 0-19.642-4.093-26.975-8.833-8.154-5.271-17.396-11.245-35.148-11.245-17.747 0-26.987 5.974-35.139 11.244-7.332 4.74-13.664 8.834-26.974 8.834s-19.642-4.094-26.975-8.834c-8.152-5.271-17.392-11.244-35.138-11.244-17.753 0-26.995 5.975-35.149 11.245-7.332 4.74-13.665 8.833-26.974 8.833-13.302 0-19.632-4.093-26.963-8.831-6.902-4.462-14.604-9.414-27.567-10.834 1.104-26.709 23.168-48.099 50.143-48.099h11.294c4.159 0 7.529-3.371 7.529-7.529 0-4.159-3.371-7.529-7.529-7.529h-11.293c-35.981.002-65.255 29.275-65.255 65.256v95.373c0 35.981 29.274 65.255 65.255 65.255h296.609c4.159 0 7.529-3.371 7.529-7.529s-3.371-7.529-7.529-7.529h-296.609c-27.678 0-50.196-22.518-50.196-50.196v-82.304c8.473 1.239 13.654 4.571 19.445 8.314 8.152 5.271 17.392 11.244 35.138 11.244 17.752 0 26.994-5.975 35.148-11.245 7.332-4.74 13.665-8.833 26.975-8.833 13.302 0 19.632 4.093 26.963 8.831 8.154 5.272 17.396 11.247 35.15 11.247s26.995-5.975 35.149-11.247c7.33-4.738 13.661-8.831 26.964-8.831 13.309 0 19.641 4.093 26.974 8.833 8.154 5.271 17.396 11.245 35.149 11.245 17.746 0 26.986-5.974 35.138-11.244 7.332-4.74 13.665-8.834 26.975-8.834 13.309 0 19.641 4.093 26.974 8.833 8.154 5.271 17.396 11.245 35.149 11.245 17.752 0 26.994-5.975 35.148-11.245 5.791-3.744 10.972-7.074 19.445-8.313v82.304c0 27.678-22.518 50.196-50.196 50.196h-49.744c-4.159 0-7.529 3.371-7.529 7.529s3.371 7.529 7.529 7.529h49.744c35.981 0 65.255-29.274 65.255-65.255v-95.373c-.002-35.981-29.276-65.254-65.257-65.254zm-57.586-205.877c2.94-2.935 7.724-2.936 10.659-.004l31.936 31.936c2.933 2.942 2.933 7.729.014 10.658-2.937 2.933-7.716 2.934-10.656.008-.001-.001-.001-.002-.002-.003-5.96-5.96 15.873 15.873-31.945-31.945-2.924-2.944-2.922-7.724-.006-10.65zm-133.095 154.399 47.917-47.917 5.327 5.323c2.94 2.938 7.707 2.938 10.648-.005 2.939-2.942 2.937-7.709-.005-10.648l-5.323-5.318 15.973-15.973 5.327 5.327c1.471 1.47 3.398 2.205 5.325 2.205 6.65 0 10.081-8.096 5.324-12.854l-5.327-5.327 15.973-15.973 5.317 5.322c1.471 1.472 3.398 2.208 5.326 2.208 6.635 0 10.09-8.082 5.326-12.851l-5.322-5.327 15.968-15.968 21.296 21.296-127.774 127.776c-5.871 5.873-15.425 5.873-21.296 0-5.872-5.871-5.872-15.424 0-21.296z" fill="#0061a0"/><circle cx="48.941" cy="429.135" r="7.529" fill="#0061a0"/><circle cx="86.588" cy="429.135" r="7.529" fill="#0061a0"/><circle cx="124.235" cy="429.135" r="7.529" fill="#0061a0"/><circle cx="161.882" cy="429.135" r="7.529" fill="#0061a0"/><circle cx="199.529" cy="429.135" r="7.529" fill="#0061a0"/><circle cx="237.176" cy="429.135" r="7.529" fill="#0061a0"/><circle cx="274.824" cy="429.135" r="7.529" fill="#0061a0"/><circle cx="312.471" cy="429.135" r="7.529" fill="#0061a0"/><circle cx="350.118" cy="429.135" r="7.529" fill="#0061a0"/><circle cx="387.765" cy="429.135" r="7.529" fill="#0061a0"/><circle cx="425.412" cy="429.135" r="7.529" fill="#0061a0"/><circle cx="463.059" cy="429.135" r="7.529" fill="#0061a0"/></g></g></svg>