<svg id="Capa_1" enable-background="new 0 0 512 512" height="512" viewBox="0 0 512 512" width="512" xmlns="http://www.w3.org/2000/svg"><g><g><g><path d="m388.129 512c-68.302 0-123.871-55.569-123.871-123.871v-173.419c0-9.109 7.407-16.516 16.516-16.516h214.71c9.109 0 16.516 7.407 16.516 16.516v173.419c0 68.302-55.569 123.871-123.871 123.871zm-107.355-297.29v173.419c0 59.194 48.161 107.355 107.355 107.355s107.355-48.161 107.355-107.355v-173.419z" fill="#0061a0"/></g><g><path d="m272.516 247.742h231.226v16.516h-231.226z" fill="#0061a0"/></g><g><path d="m388.129 478.968c-50.085 0-90.839-40.754-90.839-90.839v-132.129h16.516v132.129c0 40.985 33.338 74.323 74.323 74.323s74.323-33.338 74.323-74.323v-132.129h16.516v132.129c0 50.085-40.754 90.839-90.839 90.839z" fill="#0061a0"/></g><g><path d="m313.806 206.452h-16.516v-29.836c0-15.476 10.521-28.713 25.608-32.19l88.155-20.34 3.708 16.095-88.155 20.34c-7.531 1.734-12.8 8.357-12.8 16.095z" fill="#0061a0"/></g><g><path d="m454.26 207.476-12.907-103.193c-1.544-12.371-12.106-21.702-24.576-21.702h-86.454v16.516h49.548v16.516h-49.548c-9.109 0-16.516-7.407-16.516-16.516v-16.516c0-9.109 7.407-16.516 16.516-16.516h86.454c20.786 0 38.392 15.55 40.968 36.17l12.907 103.193z" fill="#0061a0"/></g><g><path d="m312.845 120.914h44.204v16.515h-44.204z" transform="matrix(.164 -.986 .986 .164 152.56 438.379)" fill="#0061a0"/></g><g><path d="m207.806 429.304-2.709-16.293c23.635-3.947 44.891-15.154 61.465-32.438l11.916 11.437c-19.059 19.869-43.495 32.768-70.672 37.294z" fill="#0061a0"/></g><g><path d="m155.549 429.304c-61.424-10.232-106.001-62.852-106.001-125.118v-122.509h16.516v122.508c0 54.156 38.772 99.931 92.193 108.833z" fill="#0061a0"/></g><g><path d="m264.919 512h-166.483l8.233-107.041 16.467 1.272-6.862 89.253h130.807l-6.862-89.253 16.466-1.272z" fill="#0061a0"/></g><g><path d="m57.806 280.774h-16.516c-22.767 0-41.29-18.523-41.29-41.29s18.523-41.29 41.29-41.29h16.516v16.516h-16.516c-13.659 0-24.774 11.115-24.774 24.774s11.115 24.774 24.774 24.774h16.516z" fill="#0061a0"/></g><g><path d="m37.167 230.553h16.508v26.112h-16.508z" transform="matrix(.316 -.949 .949 .316 -200.051 209.671)" fill="#0061a0"/></g><g><path d="m115.613 247.742c-12.668 0-25.071-5.137-34.031-14.097l-4.839-4.839 11.677-11.677 4.839 4.839c5.888 5.888 14.03 9.257 22.355 9.257s16.467-3.369 22.355-9.257l4.839-4.839 11.677 11.677-4.839 4.839c-8.962 8.96-21.365 14.097-34.033 14.097z" fill="#0061a0"/></g><g><path d="m247.742 247.742c-12.668 0-25.071-5.137-34.031-14.097l-4.839-4.839 11.677-11.677 4.839 4.839c10.917 10.917 29.927 12.007 42.001 2.42l10.257 12.932c-8.466 6.722-19.086 10.422-29.904 10.422z" fill="#0061a0"/></g><g><path d="m186.244 304.681-23.907-11.949 3.691-7.391c4.831-9.67 7.391-20.497 7.391-31.29v-6.309h16.516v6.309c0 10.595-1.99 21.207-5.797 31.116l9.489 4.74z" fill="#0061a0"/></g><g><path d="m183.098 363.355h-2.841c-17.02 0-33.676-6.904-45.708-18.936l11.677-11.677c8.96 8.96 21.364 14.096 34.031 14.096h2.841c12.668 0 25.071-5.137 34.031-14.096l11.677 11.677c-12.032 12.032-28.697 18.936-45.708 18.936z" fill="#0061a0"/></g><g><circle cx="90.839" cy="272.516" r="8.258" fill="#0061a0"/></g><g><circle cx="123.871" cy="297.29" r="8.258" fill="#0061a0"/></g><g><circle cx="247.742" cy="272.516" r="8.258" fill="#0061a0"/></g><g><circle cx="239.484" cy="313.806" r="8.258" fill="#0061a0"/></g><g><circle cx="90.839" cy="322.065" r="8.258" fill="#0061a0"/></g><g><path d="m313.806 191.034-9.282-1.164c-44.42-5.558-86.313-26.038-117.958-57.691l-27.243-27.243 11.677-11.678 27.243 27.243c26.69 26.69 61.333 44.742 98.403 51.456-3.138-23.428-17.524-43.817-39.102-54.602l-5.227-2.61 7.374-14.774 5.236 2.61c30.15 15.071 48.88 45.386 48.88 79.096v9.357z" fill="#0061a0"/></g><g><path d="m208.805 173.419c-29.911 0-58.492-14.278-76.437-38.218l-23.362-31.149 13.213-9.901 23.362 31.149c14.848 19.786 38.483 31.604 63.224 31.604 8.498 0 16.904-1.363 24.989-4.055l1.528-.512 5.277 15.649-1.553.52c-9.802 3.27-19.968 4.913-30.241 4.913z" fill="#0061a0"/></g><g><path d="m49.548 201.612v-54.388c0-17.02 6.904-33.676 18.936-45.708l11.677 11.677c-8.96 8.96-14.097 21.364-14.097 34.031v15.88c19.795-16.145 42.802-28.201 67.427-35.237l6.218-1.775 4.55 15.872-6.227 1.784c-28.044 8.01-53.76 23.147-74.389 43.768z" fill="#0061a0"/></g><g><path d="m25.327 506.723c-16.854-44.949-25.327-91.714-25.327-139.338v-226.998c0-53.496 42.612-97.222 95.67-99.039 27.895-26.698 64.38-41.348 103.11-41.348 53.57 0 103.019 29.085 129.032 75.925l1.47 2.643-14.435 8.019-1.47-2.643c-23.114-41.588-67.014-67.427-114.597-67.427-35.452 0-68.781 13.807-93.845 38.871l-2.42 2.42h-3.419c-45.535 0-82.581 37.046-82.581 82.581v226.998c0 45.634 8.126 90.451 24.155 133.211z" fill="#0061a0"/></g><g><path d="m83.968 467.035c-11.71-17.573-17.903-38.02-17.903-59.128v-3.262h16.516v3.262c0 17.837 5.236 35.122 15.129 49.97z" fill="#0061a0"/></g><g><path d="m58.475 490.479c-16.888-39.383-25.443-81.094-25.443-123.954v-3.171h16.516v3.171c0 40.613 8.109 80.128 24.105 117.454z" fill="#0061a0"/></g></g></g></svg>