<svg xmlns="http://www.w3.org/2000/svg" id="Layer_1" data-name="Layer 1" viewBox="0 0 64 64" width="512" height="512"><path d="M54.989,64A1,1,0,0,1,54,63.139a6.044,6.044,0,0,0-2.3-3.771c-1.269-1.219-2.708-2.6-2.708-5.368a9.346,9.346,0,0,1,1-4.346,9.645,9.645,0,0,0,1-4.654,4.89,4.89,0,0,0-.633-2.508,1,1,0,0,1,1.742-.984A6.917,6.917,0,0,1,52.991,45a11.6,11.6,0,0,1-1.171,5.47A7.458,7.458,0,0,0,50.991,54c0,1.916.924,2.8,2.093,3.925a7.945,7.945,0,0,1,2.9,4.936,1,1,0,0,1-.852,1.129A.932.932,0,0,1,54.989,64Z" fill="#0061a0"/><path d="M48.989,64A1,1,0,0,1,48,63.139a6.044,6.044,0,0,0-2.3-3.771c-1.269-1.219-2.708-2.6-2.708-5.368,0-.4.018-.763.051-1.1a1,1,0,1,1,1.99.194c-.027.276-.041.574-.041.9,0,1.916.924,2.8,2.093,3.925a7.945,7.945,0,0,1,2.9,4.936,1,1,0,0,1-.852,1.129A.932.932,0,0,1,48.989,64Z" fill="#0061a0"/><path d="M61,64a1,1,0,0,1-.989-.861,6.045,6.045,0,0,0-2.3-3.771C56.439,58.149,55,56.768,55,54a9.346,9.346,0,0,1,1-4.346A9.645,9.645,0,0,0,57,45a5.839,5.839,0,0,0-1.854-4.151A7.047,7.047,0,0,1,53,36a9.365,9.365,0,0,1,1.057-4.66A8.543,8.543,0,0,0,55,27C55,12.047,45.757,2,32,2S9,12.047,9,27a8.543,8.543,0,0,0,.943,4.34A9.365,9.365,0,0,1,11,36a7.047,7.047,0,0,1-2.146,4.849A5.839,5.839,0,0,0,7,45a9.645,9.645,0,0,0,1,4.654A9.346,9.346,0,0,1,9,54c0,2.768-1.439,4.149-2.708,5.368a6.045,6.045,0,0,0-2.3,3.771,1,1,0,1,1-1.98-.278,7.942,7.942,0,0,1,2.9-4.936C6.076,56.8,7,55.916,7,54a7.446,7.446,0,0,0-.83-3.53A11.618,11.618,0,0,1,5,45a7.734,7.734,0,0,1,2.325-5.441C8.261,38.45,9,37.575,9,36a7.484,7.484,0,0,0-.866-3.807A10.473,10.473,0,0,1,7,27C7,10.854,17.042.005,31.989,0H32C46.953,0,57,10.851,57,27a10.473,10.473,0,0,1-1.134,5.193A7.484,7.484,0,0,0,55,36c0,1.575.739,2.45,1.675,3.559A7.734,7.734,0,0,1,59,45a11.618,11.618,0,0,1-1.17,5.47A7.446,7.446,0,0,0,57,54c0,1.916.924,2.8,2.094,3.925a7.942,7.942,0,0,1,2.9,4.936,1,1,0,0,1-.851,1.129A.951.951,0,0,1,61,64Z" fill="#0061a0"/><path d="M9.011,64a.932.932,0,0,1-.14-.01,1,1,0,0,1-.852-1.129,7.945,7.945,0,0,1,2.9-4.936C12.085,56.8,13.009,55.916,13.009,54a7.458,7.458,0,0,0-.829-3.53A11.6,11.6,0,0,1,11.009,45a6.917,6.917,0,0,1,.891-3.492,1,1,0,0,1,1.742.984A4.89,4.89,0,0,0,13.009,45a9.645,9.645,0,0,0,1,4.654,9.346,9.346,0,0,1,1,4.346c0,2.768-1.439,4.149-2.708,5.368A6.044,6.044,0,0,0,10,63.139,1,1,0,0,1,9.011,64Z" fill="#0061a0"/><path d="M15.011,64a.932.932,0,0,1-.14-.01,1,1,0,0,1-.852-1.129,7.945,7.945,0,0,1,2.9-4.936C18.085,56.8,19.009,55.916,19.009,54c0-.329-.014-.627-.041-.9a1,1,0,0,1,1.99-.194c.033.334.051.7.051,1.1,0,2.768-1.439,4.149-2.708,5.368A6.044,6.044,0,0,0,16,63.139,1,1,0,0,1,15.011,64Z" fill="#0061a0"/><path d="M32,55C13.216,55,13,25.266,13,24a1,1,0,0,1,.941-1c.164-.01,16.512-1.076,21.185-9.488a1,1,0,0,1,1.832.2A13.559,13.559,0,0,0,50,23a1,1,0,0,1,1,1C51,25.266,50.784,55,32,55ZM15.024,24.919C15.216,29.863,16.926,53,32,53c15.021,0,16.771-22.977,16.974-28.028A15.436,15.436,0,0,1,35.806,16.1C30.492,22.942,18.538,24.58,15.024,24.919Z" fill="#0061a0"/><path d="M21,64a1,1,0,0,1-.324-1.946C24.93,60.6,25,54.489,25,54.427V53a1,1,0,0,1,2,0v1.429c0,.309-.064,7.593-5.676,9.517A.992.992,0,0,1,21,64Z" fill="#0061a0"/><path d="M43,64a.992.992,0,0,1-.324-.054C37.064,62.022,37,54.738,37,54.429V53a1,1,0,0,1,2,0v1.429c0,.06.07,6.166,4.324,7.625A1,1,0,0,1,43,64Z" fill="#0061a0"/><circle cx="23" cy="37" r="1" fill="#0061a0"/><circle cx="22" cy="40" r="1" fill="#0061a0"/><circle cx="27" cy="42" r="1" fill="#0061a0"/><circle cx="27" cy="38" r="1" fill="#0061a0"/><circle cx="24" cy="44" r="1" fill="#0061a0"/><circle cx="41" cy="37" r="1" fill="#0061a0"/><circle cx="42" cy="40" r="1" fill="#0061a0"/><circle cx="37" cy="42" r="1" fill="#0061a0"/><circle cx="37" cy="38" r="1" fill="#0061a0"/><circle cx="40" cy="44" r="1" fill="#0061a0"/><path d="M39,34a4.7,4.7,0,0,1-3.9-2.553,1,1,0,0,1,1.79-.894A2.721,2.721,0,0,0,39,32a2.723,2.723,0,0,0,2.108-1.453,1,1,0,0,1,1.787.9A4.7,4.7,0,0,1,39,34Z" fill="#0061a0"/><path d="M25,34a4.7,4.7,0,0,1-3.895-2.553,1,1,0,0,1,1.79-.894A2.721,2.721,0,0,0,25,32a2.723,2.723,0,0,0,2.108-1.453,1,1,0,0,1,1.787.9A4.7,4.7,0,0,1,25,34Z" fill="#0061a0"/></svg>