<?xml version="1.0" encoding="UTF-8" standalone="no" ?>
<!DOCTYPE svg PUBLIC "-//W3C//DTD SVG 1.1//EN" "http://www.w3.org/Graphics/SVG/1.1/DTD/svg11.dtd">
<svg xmlns="http://www.w3.org/2000/svg" xmlns:xlink="http://www.w3.org/1999/xlink" version="1.1" width="1080" height="1080" viewBox="0 0 1080 1080" xml:space="preserve">
<desc>Created with Fabric.js 5.2.4</desc>
<defs>
</defs>
<g transform="matrix(1 0 0 1 540 540)" id="1ceeae1c-afff-4e38-a2d8-0de04178e994"  >
<rect style="stroke: none; stroke-width: 1; stroke-dasharray: none; stroke-linecap: butt; stroke-dashoffset: 0; stroke-linejoin: miter; stroke-miterlimit: 4; fill: rgb(255,255,255); fill-rule: nonzero; opacity: 1; visibility: hidden;" vector-effect="non-scaling-stroke"  x="-540" y="-540" rx="0" ry="0" width="1080" height="1080" />
</g>
<g transform="matrix(1 0 0 1 540 540)" id="bc3e712a-545c-4ff2-9cbc-990e1fb41cdc"  >
</g>
<g transform="matrix(1.21 0 0 1.21 540.05 540.36)"  >
<g style="" vector-effect="non-scaling-stroke"   >
		<g transform="matrix(1 0 0 1 0 0)"  >
<path style="stroke: none; stroke-width: 1; stroke-dasharray: none; stroke-linecap: butt; stroke-dashoffset: 0; stroke-linejoin: miter; stroke-miterlimit: 4; fill: rgb(255,255,255); fill-rule: nonzero; opacity: 1;" vector-effect="non-scaling-stroke"  transform=" translate(-524.54, -472.43)" d="M 907.04126 261.033203 C 931.153931 304.948975 947.239441 351.229248 955.383057 400.330139 C 960.279602 429.853516 962.145874 459.538879 961.039612 489.382721 C 959.071533 542.470642 947.974182 593.665344 927.265869 642.599792 C 908.888794 686.025391 884.210205 725.602966 852.914795 760.991821 C 793.253357 828.456726 719.612061 873.182495 632.704529 896.147644 C 610.330811 902.059814 587.475098 905.418396 564.380066 907.55365 C 547.24585 909.137756 530.136475 909.679077 513.004761 909.209595 C 482.847656 908.383118 452.993958 904.905701 423.59436 897.818909 C 354.817169 881.240234 293.552612 850.072754 239.823883 803.994751 C 199.266068 769.212158 166.261169 728.272583 140.716324 681.491699 C 118.221939 640.29718 102.843544 596.436523 94.639984 550.115173 C 89.571083 521.493591 87.186447 492.655792 87.834793 463.641235 C 89.005325 411.25827 98.913544 360.593842 118.290352 311.773773 C 137.233536 264.046173 163.627884 221.052963 197.685257 182.626129 C 239.667175 135.258041 289.576569 98.891357 347.320374 73.077103 C 384.832764 56.307247 424.017853 45.60236 464.613922 39.809437 C 491.057953 36.035957 517.67041 34.617363 544.314453 36.030216 C 621.843384 40.141354 693.770447 62.268017 759.538147 103.895798 C 786.41626 120.908363 811.09613 140.736374 833.439392 163.231689 C 862.317566 192.306503 887.279297 224.53508 907.04126 261.033203 M 288.644073 731.042847 C 283.871948 738.289856 278.761688 745.255676 272.62439 751.449402 C 271.060242 753.027954 268.957092 755.104126 270.006012 757.500305 C 271.059418 759.906799 273.945892 759.573486 276.238678 759.708191 C 317.769806 762.149231 357.464172 754.732178 395.225739 737.269409 C 398.913727 735.563965 401.887604 735.517456 405.505707 737.481201 C 438.471436 755.373108 473.388794 768.148987 509.722839 777.326477 C 547.143372 786.778381 585.159363 792.10907 623.649292 793.554199 C 670.849243 795.326477 717.799133 792.597107 764.326538 783.765015 C 779.550842 780.875 794.723022 777.727539 809.570984 773.454529 C 825.94165 768.743286 838.000549 757.842957 848.797424 744.733398 C 876.08783 711.59729 899.117432 675.895142 916.46051 636.631165 C 936.567566 591.10968 948.216125 543.460266 950.489075 493.712708 C 951.699585 467.219055 950.262024 440.705566 946.414307 414.491058 C 940.066162 371.240112 927.537537 329.716095 908.311218 290.382965 C 878.473206 229.340347 836.875671 177.827972 782.810547 136.481949 C 740.257751 103.93988 693.372681 80.025726 641.963074 64.912827 C 618.267395 57.946976 594.138977 53.314537 569.642273 50.389645 C 553.584351 48.472343 537.418091 47.785366 521.312439 47.710712 C 508.394287 47.650841 495.409119 48.700043 482.474854 50.103443 C 457.884094 52.771606 433.842896 57.769276 410.312286 65.26458 C 370.370392 77.987427 333.328094 96.735031 298.106689 119.311707 C 285.432739 127.435631 273.946106 136.630157 267.270508 150.497742 C 262.86792 159.643478 258.729614 168.940262 254.968292 178.367035 C 229.667618 241.776001 218.285782 307.78363 218.081238 375.91568 C 217.96286 415.343384 221.702972 454.325897 230.468872 492.776093 C 242.925278 547.414185 263.637787 598.407715 296.688751 644.11615 C 303.2211 653.150208 306.665436 663.710632 306.592804 675.488708 C 306.467621 695.786804 299.089691 713.465088 288.644073 731.042847 z" stroke-linecap="round" />
</g>
		<g transform="matrix(1 0 0 1 -105.58 -22.42)"  >
<path style="stroke: none; stroke-width: 1; stroke-dasharray: none; stroke-linecap: butt; stroke-dashoffset: 0; stroke-linejoin: miter; stroke-miterlimit: 4; fill: rgb(255,255,255); fill-rule: nonzero; opacity: 1;" vector-effect="non-scaling-stroke"  transform=" translate(-418.96, -450.01)" d="M 468.9823 537.306641 C 430.322968 537.306458 392.1604 537.309509 353.997803 537.30304 C 346.690735 537.301758 347.017548 537.265808 346.62085 530.26825 C 345.95752 518.567505 352.19751 510.234344 359.081665 501.843567 C 386.005493 469.02713 412.733612 436.050049 439.515594 403.117371 C 441.670837 400.467194 444.412201 398.217102 445.647461 394.800507 C 443.78244 393.712341 441.920868 394.170044 440.154022 394.167816 C 412.657013 394.132935 385.159943 394.146393 357.662903 394.141235 C 350.842682 394.139954 350.795227 394.082764 350.792114 387.082275 C 350.789307 380.749634 350.977325 374.409973 350.734253 368.086761 C 350.571838 363.862061 352.284424 362.692657 356.332886 362.704315 C 399.327972 362.828033 442.3237 362.870636 485.318512 362.717804 C 490.325775 362.700012 491.717834 364.463409 491.261169 369.145935 C 490.311676 378.883179 486.676605 387.195618 480.328857 394.763885 C 469.422485 407.767365 459.08429 421.247772 448.526276 434.542816 C 430.411835 457.35321 412.309692 480.173401 394.212524 502.997528 C 393.392883 504.03125 392.672699 505.14386 391.612366 506.632141 C 394.89444 507.607391 397.949829 507.617279 401.009186 507.617615 C 428.339569 507.620605 455.669952 507.625732 483.000336 507.632629 C 491.309814 507.634735 491.311554 507.638184 491.316315 516.180115 C 491.317505 518.346497 491.356049 520.514587 491.287323 522.679016 C 490.9935 531.933716 485.831879 537.025513 476.477509 537.28595 C 474.146271 537.350891 471.81192 537.302734 468.9823 537.306641 z" stroke-linecap="round" />
</g>
		<g transform="matrix(1 0 0 1 40.99 -3.28)"  >
<path style="stroke: none; stroke-width: 1; stroke-dasharray: none; stroke-linecap: butt; stroke-dashoffset: 0; stroke-linejoin: miter; stroke-miterlimit: 4; fill: rgb(255,255,255); fill-rule: nonzero; opacity: 1;" vector-effect="non-scaling-stroke"  transform=" translate(-565.52, -469.15)" d="M 522.896973 415.846588 C 550.046997 396.426086 577.345886 396.540588 605.184265 414.198364 C 605.406311 413.197784 605.623596 412.594086 605.664368 411.978729 C 606.210876 403.724945 606.204712 403.722961 614.735046 403.713348 C 619.39856 403.708069 624.077454 403.943787 628.721252 403.640625 C 633.21283 403.347382 634.401062 405.219696 634.369263 409.475403 C 634.208557 430.959778 634.30249 452.446075 634.305237 473.931702 C 634.307495 491.919647 634.311096 509.907623 634.306213 527.895569 C 634.304199 535.416687 634.294861 535.41803 626.532166 535.431213 C 624.366943 535.434875 622.185181 535.253113 620.039551 535.457092 C 612.106812 536.211426 606.91095 532.810547 604.232788 524.781128 C 584.304199 537.867249 563.176453 540.827942 540.959229 532.618408 C 525.544922 526.922668 513.804871 516.47168 505.690247 502.29837 C 488.996155 473.140015 495.933411 438.443451 522.896973 415.846588 M 524.960938 467.586731 C 524.401978 479.790283 528.400269 490.330444 537.508118 498.402802 C 550.513245 509.929321 565.653015 512.209717 581.21936 504.991913 C 596.412659 497.947021 603.278687 485.104584 602.904114 468.224915 C 602.452759 447.881073 585.884033 430.860718 565.998596 430.128387 C 545.228455 429.363403 524.888428 446.1716 524.960938 467.586731 z" stroke-linecap="round" />
</g>
		<g transform="matrix(1 0 0 1 248.82 -3.48)"  >
<path style="stroke: none; stroke-width: 1; stroke-dasharray: none; stroke-linecap: butt; stroke-dashoffset: 0; stroke-linejoin: miter; stroke-miterlimit: 4; fill: rgb(255,255,255); fill-rule: nonzero; opacity: 1;" vector-effect="non-scaling-stroke"  transform=" translate(-773.36, -468.95)" d="M 840.17981 484.908508 C 829.682922 525.686523 788.831909 547.914368 749.690979 533.142151 C 702.010376 515.146973 688.862305 454.392975 726.533081 419.19046 C 747.72229 399.389679 773.050903 395.022949 799.684387 406.239685 C 825.059265 416.926361 838.971741 437.160065 841.826965 464.651794 C 842.517395 471.300354 841.512085 477.935425 840.17981 484.908508 M 810.416382 455.152893 C 803.114868 437.722992 787.635559 429.08194 767.718018 431.317261 C 751.160522 433.175476 738.371643 445.592651 735.629395 463.411377 C 733.166382 479.415741 738.348511 492.832275 751.876343 502.102539 C 764.979675 511.081787 779.219543 511.454407 793.068481 504.223328 C 810.642639 495.047211 817.608215 474.936462 810.416382 455.152893 z" stroke-linecap="round" />
</g>
		<g transform="matrix(1 0 0 1 145.8 -23.21)"  >
<path style="stroke: none; stroke-width: 1; stroke-dasharray: none; stroke-linecap: butt; stroke-dashoffset: 0; stroke-linejoin: miter; stroke-miterlimit: 4; fill: rgb(255,255,255); fill-rule: nonzero; opacity: 1;" vector-effect="non-scaling-stroke"  transform=" translate(-670.34, -449.22)" d="M 683.478516 363.028564 C 686.381287 364.374908 686.005981 366.735138 686.007141 368.823547 C 686.036377 422.42569 685.987122 476.027893 686.098328 529.629822 C 686.10791 534.277405 684.419495 535.861877 679.930237 535.488525 C 676.29303 535.185974 672.56665 535.058228 668.957214 535.493896 C 659.970947 536.578491 655.52887 530.547424 654.953857 521.251465 C 654.23584 509.643463 654.790466 497.956879 654.79187 486.304199 C 654.79657 447.350983 654.791809 408.397797 654.811035 369.44458 C 654.814331 362.853058 654.869446 362.821869 661.56134 362.830292 C 668.718445 362.839294 675.875549 362.897095 683.478516 363.028564 z" stroke-linecap="round" />
</g>
</g>
</g>
</svg>